<?xml version="1.0" encoding="utf-8"?>
<!DOCTYPE svg PUBLIC "-//W3C//DTD SVG 1.1//EN" "http://www.w3.org/Graphics/SVG/1.1/DTD/svg11.dtd">
<svg version="1.1" id="Layer_1" xmlns="http://www.w3.org/2000/svg" xmlns:xlink="http://www.w3.org/1999/xlink" x="0px" y="0px"
	 width="350px" height="97px" viewBox="0 0 350 97" enable-background="new 0 0 350 97" xml:space="preserve">
<g>
	<path d="M127.617,72.653v8.203h-9.535v-8.203h-26.71l36.245-40.453v31.9h10.773v8.553H127.617z M118.363,55.126l-8.342,9.185h8.342
		V55.126z"/>
	<path d="M174.775,80.856V49.377l-13.811,16.476l-13.811-16.476v31.479h-10.096V33.744h9.535l14.371,17.597l14.372-17.597h9.533
		v47.113H174.775z"/>
	<path d="M193.492,80.856V33.744h10.096v47.113H193.492z"/>
	<path d="M253.436,78.332c-5.188,2.338-10.822,3.506-16.896,3.506c-3.506,0-6.813-0.644-9.921-1.929
		c-3.108-1.284-5.832-3.024-8.168-5.223c-2.338-2.196-4.195-4.791-5.573-7.781c-1.379-2.991-2.067-6.194-2.067-9.605
		c0-3.459,0.688-6.684,2.067-9.675c1.378-2.99,3.26-5.584,5.644-7.782c2.385-2.196,5.176-3.926,8.378-5.188
		c3.201-1.262,6.626-1.893,10.271-1.893c1.308,0,2.699,0.082,4.172,0.245c1.471,0.165,2.91,0.397,4.312,0.7
		c1.402,0.305,2.746,0.655,4.031,1.052c1.285,0.397,2.441,0.831,3.471,1.298v11.006c-2.338-1.354-4.896-2.5-7.677-3.435
		c-2.783-0.935-5.481-1.402-8.098-1.402c-2.384,0-4.559,0.432-6.521,1.296c-1.964,0.866-3.635,1.998-5.012,3.401
		c-1.38,1.402-2.443,3.014-3.191,4.837s-1.121,3.67-1.121,5.539c0,2.243,0.431,4.3,1.297,6.17c0.863,1.87,2.021,3.481,3.47,4.836
		c1.449,1.357,3.143,2.419,5.083,3.191c1.939,0.771,3.984,1.156,6.134,1.156c0.936,0,1.859-0.058,2.77-0.176
		c0.912-0.116,1.928-0.386,3.05-0.806v-8.834h-7.852v-9.325h17.948V78.332z"/>
	<path d="M311.274,57.3c0,3.038-0.619,6.019-1.857,8.938c-1.239,2.922-2.979,5.539-5.223,7.853c-2.243,2.313-4.92,4.184-8.027,5.608
		c-3.108,1.426-6.557,2.139-10.342,2.139s-7.232-0.713-10.341-2.139c-3.108-1.425-5.784-3.295-8.028-5.608
		c-2.243-2.313-3.984-4.931-5.223-7.853c-1.239-2.92-1.857-5.9-1.857-8.938s0.618-6.017,1.857-8.938
		c1.238-2.921,2.979-5.539,5.223-7.852c2.244-2.314,4.92-4.183,8.028-5.609c3.108-1.425,6.556-2.138,10.341-2.138
		s7.233,0.713,10.342,2.138c3.107,1.426,5.784,3.295,8.027,5.609c2.244,2.312,3.983,4.93,5.223,7.852
		C310.655,51.283,311.274,54.262,311.274,57.3z M300.549,57.3c0-2.15-0.374-4.137-1.121-5.959c-0.749-1.823-1.776-3.411-3.085-4.768
		c-1.31-1.354-2.863-2.418-4.661-3.189c-1.803-0.771-3.753-1.157-5.856-1.157c-2.103,0-4.055,0.386-5.854,1.157
		c-1.8,0.771-3.354,1.835-4.662,3.189c-1.31,1.357-2.337,2.945-3.085,4.768c-0.748,1.822-1.121,3.809-1.121,5.959
		c0,2.149,0.373,4.136,1.121,5.959c0.748,1.822,1.775,3.412,3.085,4.768c1.309,1.356,2.862,2.418,4.662,3.188
		c1.799,0.772,3.751,1.157,5.854,1.157c2.104,0,4.054-0.385,5.856-1.157c1.798-0.771,3.352-1.832,4.661-3.188
		c1.309-1.355,2.336-2.945,3.085-4.768C300.175,61.436,300.549,59.449,300.549,57.3z"/>
	<path d="M348.361,66.273c0,1.822-0.34,3.658-1.017,5.504c-0.678,1.847-1.695,3.518-3.05,5.013
		c-1.355,1.497-3.039,2.711-5.047,3.646c-2.011,0.935-4.347,1.402-7.011,1.402c-2.244,0-4.231-0.341-5.96-1.017
		c-1.729-0.677-3.248-1.565-4.556-2.664c-1.31-1.098-2.431-2.313-3.366-3.646c-0.935-1.332-1.706-2.652-2.313-3.961l8.904-4.698
		c0.186,0.749,0.454,1.532,0.806,2.349c0.352,0.817,0.806,1.555,1.367,2.209c0.561,0.654,1.263,1.203,2.104,1.648
		c0.841,0.443,1.868,0.664,3.084,0.664c1.402,0,2.676-0.501,3.822-1.508c1.144-1.003,1.717-2.301,1.717-3.89
		c0-1.354-0.49-2.477-1.473-3.365c-0.98-0.887-2.197-1.717-3.646-2.489c-1.449-0.771-3.038-1.554-4.767-2.349
		c-1.73-0.794-3.32-1.74-4.768-2.839c-1.449-1.098-2.665-2.442-3.646-4.031c-0.981-1.589-1.473-3.576-1.473-5.959
		c0-1.729,0.362-3.411,1.086-5.047c0.726-1.637,1.742-3.085,3.051-4.347c1.308-1.262,2.839-2.266,4.592-3.015
		c1.752-0.747,3.681-1.121,5.784-1.121c2.851,0,5.514,0.7,7.992,2.103c2.477,1.402,4.557,3.483,6.238,6.24l-8.411,4.696
		c-0.608-1.075-1.403-1.985-2.384-2.734c-0.982-0.748-2.129-1.122-3.436-1.122c-1.356,0-2.408,0.34-3.155,1.017
		c-0.748,0.678-1.121,1.554-1.121,2.629c0,1.028,0.49,1.904,1.471,2.629c0.982,0.725,2.22,1.426,3.717,2.103
		c1.495,0.679,3.107,1.415,4.837,2.209c1.729,0.796,3.342,1.788,4.837,2.979c1.496,1.192,2.735,2.652,3.717,4.381
		C347.871,61.623,348.361,63.75,348.361,66.273z"/>
</g>
<g>
	<defs>
		<path id="SVGID_1_" d="M11.738,91.72v1.299c3.455,1.322,17.228,2.309,33.692,2.309c19.068,0,34.526-1.323,34.526-2.956
			c0-1.635-15.458-2.959-34.526-2.959C28.966,89.412,15.193,90.397,11.738,91.72"/>
	</defs>
	<clipPath id="SVGID_2_">
		<use xlink:href="#SVGID_1_"  overflow="visible"/>
	</clipPath>
	
		<radialGradient id="SVGID_3_" cx="-197.0796" cy="319.6982" r="0.2941" gradientTransform="matrix(-117.4367 0 0 -10.0615 -23098.875 3309.0234)" gradientUnits="userSpaceOnUse">
		<stop  offset="0" style="stop-color:#401011"/>
		<stop  offset="0.1059" style="stop-color:#6A4445"/>
		<stop  offset="0.2239" style="stop-color:#937778"/>
		<stop  offset="0.3403" style="stop-color:#B5A1A2"/>
		<stop  offset="0.4527" style="stop-color:#D0C2C3"/>
		<stop  offset="0.56" style="stop-color:#E3DADA"/>
		<stop  offset="0.66" style="stop-color:#EEE8E8"/>
		<stop  offset="0.7455" style="stop-color:#F2EDED"/>
		<stop  offset="1" style="stop-color:#FFFFFF"/>
	</radialGradient>
	<rect x="11.738" y="89.412" clip-path="url(#SVGID_2_)" fill="url(#SVGID_3_)" width="68.218" height="5.916"/>
</g>
<path fill="#491010" d="M52.817,14.609c0,0-9.683-12.664-21.604-9.685c0,0-2.979,0.373-1.86,6.519
	c1.116,6.146,3.538,8.298,4.096,13.088C33.45,24.532,39.968,17.775,52.817,14.609"/>
<path fill="#603813" d="M17.536,20.069C31.471,16.114,52.561,9.336,61.222,5.005c8.662-4.331,16.195-4.331,16.195-4.331
	s4.17-0.214,6.024,4.142c0.025,0.059,0.049,0.119,0.074,0.181l1.471,3.021c-0.342-0.691-0.775-1.402-1.13-1.951
	c1.748,6.795-0.432,24.814-27.719,36.786C26.952,55.657,9.062,43.606,5.296,37.77C1.531,31.932,3.602,24.023,17.536,20.069"/>
<path fill="#1D0809" d="M78.89,3.621c0,0,3.97-0.195,5.958,4.097c2.487,5.371,1.862,24.956-27.003,37.619
	C28.981,58.002,11.29,46.081,7.564,40.308c-3.726-5.772-1.677-13.594,12.104-17.505C33.45,18.892,54.307,12.188,62.874,7.905
	C71.44,3.621,78.89,3.621,78.89,3.621"/>
<path fill="#E20613" d="M62.315,28.948c0,0,7.307,22.653,6.89,30.729c-0.456,8.845-2.234,22.16-13.408,29.609
	c-11.173,7.447-21.79-0.375-21.603-4.845c0,0,0.558-0.744,2.607,1.306c2.048,2.049,6.705,2.049,12.105-0.187
	c5.399-2.235,2.421-19.554-0.372-26.628c-2.794-7.078-10.988-24.77-10.988-24.77S48.348,21.127,62.315,28.948"/>
<path fill="#AD1917" d="M39.459,38.329c-1.148-2.505-1.917-4.165-1.917-4.165s10.8-13.038,24.768-5.216c0,0,0.475,1.346,1.176,3.499
	C60.051,31.348,49.16,29.081,39.459,38.329"/>
<path fill="#F8AD19" d="M44.103,58.521c0.856-1.344,2.011-2.508,3.389-3.314c1.21-0.707,2.605-1.145,4.014-1.103
	c0.661,0.02,1.316,0.145,1.929,0.386c0.721,0.282,1.361,0.719,1.909,1.263c0.663,0.659,1.165,1.453,1.695,2.219
	c0.558,0.801,1.176,1.561,1.976,2.137c1.093,0.783,2.407,1.18,3.724,1.382c0.947,0.145,1.907,0.18,2.856,0.315
	c0.828,0.117,1.666,0.271,2.465,0.519c0.374,0.115,0.745,0.25,1.1,0.412c0.132,0.062,0.267,0.125,0.39,0.203
	c1.353,0.717,2.495,1.793,3.296,3.1c0.763,1.24,1.211,2.66,1.346,4.106c0.146,1.521-0.054,3.071-0.552,4.515
	c-0.522,1.521-1.37,2.931-2.466,4.108c-1.026,1.104-2.275,2.003-3.658,2.601c-1.313,0.565-2.743,0.861-4.172,0.817
	c-1.42-0.044-2.822-0.43-4.054-1.141c-1.386-0.796-2.525-1.978-3.286-3.381c-0.239-0.378-0.465-0.765-0.681-1.156
	c-0.25-0.457-0.476-0.928-0.722-1.387c-0.415-0.771-0.891-1.515-1.467-2.178c-0.436-0.499-0.933-0.95-1.491-1.311
	c-0.47-0.304-0.978-0.54-1.504-0.72c-0.978-0.333-2.005-0.47-2.997-0.745c-0.738-0.205-1.449-0.5-2.082-0.939l0.003-0.001
	C42.059,67.162,41.616,62.422,44.103,58.521C46.63,54.555,41.616,62.422,44.103,58.521"/>
<path fill="#C55417" d="M56.132,68.521c0,2.108,1.71,3.819,3.818,3.819c2.109,0,3.819-1.711,3.819-3.819
	c0-2.106-1.71-3.815-3.819-3.815C57.842,64.705,56.132,66.414,56.132,68.521"/>
<path fill="#220B0C" d="M56.82,68.521c0,1.73,1.4,3.133,3.13,3.133c1.729,0,3.131-1.402,3.131-3.133
	c0-1.727-1.402-3.128-3.131-3.128C58.221,65.393,56.82,66.794,56.82,68.521"/>
<path fill="#603813" d="M9.489,30.96l-1.065,1.505l-1.064,1.502l0.204,1.195l5.334,3.359c0,0,0.75-0.454,1.776,0.022l38.831,29.282
	l3.244-4.582L16.231,36.342c-0.788-0.812-0.608-1.669-0.608-1.669l-4.94-3.916L9.489,30.96z"/>
<path fill="#FFFFFF" d="M62.875,38.094c-0.007,1.24-1.626,0.247-3.631,0.235c-2.006-0.012-3.638,0.96-3.631-0.278
	c0.007-1.24,1.639-2.235,3.644-2.224C61.263,35.84,62.883,36.855,62.875,38.094z"/>
<path fill="#FFFFFF" d="M52.343,38.713c0.438,1.099-1.24,1.171-3.018,1.88c-1.779,0.709-2.983,1.785-3.422,0.687
	c-0.438-1.101,0.649-2.565,2.427-3.274C50.108,37.297,51.904,37.615,52.343,38.713z"/>
<path fill="#FFFFFF" d="M48.093,46.914c-0.246-0.518,4.178-0.72,8.293-1.333c3.637-0.542,7.102-1.554,7.102-0.963
	c0,4.666-2.096,7.943-5.122,8.293C54.949,53.306,50.445,51.858,48.093,46.914z"/>
<circle fill="#1A1A1A" cx="49.163" cy="39.723" r="0.988"/>
<circle fill="#1A1A1A" cx="59.292" cy="37.439" r="0.952"/>
</svg>
